<svg height="34.682" viewBox="0 0 54.777 34.682" width="54.777" xmlns="http://www.w3.org/2000/svg"><g fill="none" stroke="#2e9648" stroke-linecap="round" stroke-linejoin="round" stroke-width="2"><path d="m19.237 24.76h11.394"/><path d="m740.86 188.7v-19.82h-37.127v23.761h4.244" transform="translate(-702.733 -167.885)"/><path d="m19.942 28.445h15.409"/><path d="m705.684 193.079v3.252h1.5" transform="translate(-702.733 -167.885)"/><path d="m743.963 174.653h12.547l-.217 21.944h-2.786" transform="translate(-702.733 -167.885)"/><circle cx="43.446" cy="28.804" r="4.877"/></g><circle cx="43.446" cy="28.804" fill="#2e9648" r="1.855"/><circle cx="11.85" cy="28.804" fill="none" r="4.877" stroke="#2e9648" stroke-linecap="round" stroke-linejoin="round" stroke-width="2"/><circle cx="11.851" cy="28.804" fill="#2e9648" r="1.855"/><path d="m753.187 178.728-4.988.166v7.815l5.438-.117" fill="none" stroke="#2e9648" stroke-linecap="round" stroke-linejoin="round" stroke-width="2" transform="translate(-702.733 -167.885)"/><path d="m709.379 175.07s24.275.333 24.774.167" fill="none" stroke="#2e9648" stroke-linecap="round" stroke-linejoin="round" stroke-width="2" transform="translate(-702.733 -167.885)"/><path d="m6.313 12.673 23.444.166" fill="none" stroke="#2e9648" stroke-linecap="round" stroke-linejoin="round" stroke-width="2"/><path d="m6.146 18.659 24.941-.333" fill="none" stroke="#2e9648" stroke-linecap="round" stroke-linejoin="round" stroke-width="2"/></svg>