<svg height="43.215" viewBox="0 0 55.191 43.215" width="55.191" xmlns="http://www.w3.org/2000/svg"><g fill="none" stroke="#2e9648" stroke-linecap="round" stroke-linejoin="round" stroke-width="2" transform="translate(-645.584 -268.93)"><path d="m682.151 294.461c1.09-1.246 1.772-2.034 2.738-3.161 4.7-5.478 6.891-6.636 10.317-7.779a18.018 18.018 0 0 1 4.569-1.142s-.228-2.741-1.827-3.769c0 0-6.4 1.827-9.024 3.769 0 0 6.054-6.967 9.252-9.024 0 0-1.942-3.312-5.026-3.426 0 0-9.366 13.478-13.25 18.161-1.206 1.456-1.657 2-3.237 3.918"/><path d="m682.43 284.854s1.994-.15 3.081 2.407"/><path d="m655.671 300.366a10.153 10.153 0 0 1 -5.925-3.583c-3.485-4.232-4.356-8.588-1.493-13.939s6.721-6.97 9.085-6.348 2.738 1.743 4.232.747 3.236-1 3.858.249-.249 2.987 1.244 3.485 2.553-1.179 4.356.373c1.4 1.207.481 2.758 1.618 3.734.93.8 2.449-.673 3.513 1.736"/><path d="m654.042 299.639s-6.437-8.706 2.378-17.08"/><path d="m657.048 286.429a20.949 20.949 0 0 1 5.607-.814"/><path d="m655.22 292.681s1.737-.976 7.435-1.582"/><path d="m657.831 273.466a6.6 6.6 0 0 1 1.913-1.47c2.18-1.068 3.2.534 5.117.845s2.625-1.69 4.894-.578 1.558 3.159 3.071 3.782 3.962-.934 5.873.979 1.113 5.162 1.113 5.162"/><path d="m668.476 277.192a19.04 19.04 0 0 1 4.239 1.661 11.886 11.886 0 0 1 5.378 5.279"/><path d="m660.256 309.5s2.818 1.174 8.857 1.594 12.413-1.594 15.306-2.1 4.151-.839 4.151-.839.084-4.7-2.013-6.541-3.858-2.6-5.786-4.362a8.267 8.267 0 0 0 -5.687-2.264c-1.694 0-3.958.336-5.636 0s-3.006.336-4.984 1.006-3.654 4.278-5.08 4.7-2.662 3.1-3.554 4.7a4.491 4.491 0 0 0 -.8 2.348 16.734 16.734 0 0 1 5.226 1.758z"/><path d="m666.7 299.471a14.076 14.076 0 0 1 6.439-.532c5.367.669 8.806 2.936 10.483 5.451"/><path d="m659.757 305.935a9.365 9.365 0 0 1 3.438-4.194"/></g></svg>