<svg xmlns="http://www.w3.org/2000/svg" width="49.121" height="41.994" viewBox="0 0 49.121 41.994">
  <g id="シンボル_14_42" data-name="シンボル 14 – 42" transform="translate(-127.998 -1237.988)">
    <path id="パス_825" data-name="パス 825" d="M693.741,234.938a6.179,6.179,0,0,1,7.022-3.425c5.056,1.1,6.6,6.576,4.213,12.194s-11.235,10.276-11.235,10.276-8.848-4.659-11.235-10.276-.843-11.1,4.213-12.194A6.179,6.179,0,0,1,693.741,234.938Z" transform="translate(-542.889 1014.641)" fill="none" stroke="#2e9648" stroke-linecap="round" stroke-linejoin="round" stroke-width="2"/>
    <path id="パス_826" data-name="パス 826" d="M718.533,233.143s1.949,8.452-2.055,13.79-6.141,9.513-6.71,11.358c-1.543,5-8.441,4.436-6.117-1.852.968-2.618,2.7-8.1,2.7-8.1" transform="translate(-542.889 1014.641)" fill="none" stroke="#2e9648" stroke-linecap="round" stroke-linejoin="round" stroke-width="2"/>
    <path id="パス_827" data-name="パス 827" d="M686.719,255.718s-5.293,3.827-6.334,4.564c-2.048,1.451-1.251,5.234,2.76,3.587,3.71-1.523,17.851-7.7,17.851-7.7" transform="translate(-542.889 1014.641)" fill="none" stroke="#2e9648" stroke-linecap="round" stroke-linejoin="round" stroke-width="2"/>
    <path id="パス_828" data-name="パス 828" d="M683.253,251.309s-8.567,6.132-9.608,6.869c-2.048,1.451-1.251,5.234,2.759,3.587" transform="translate(-542.889 1014.641)" fill="none" stroke="#2e9648" stroke-linecap="round" stroke-linejoin="round" stroke-width="2"/>
    <path id="パス_829" data-name="パス 829" d="M679.941,246.4s-5.922,4.239-6.963,4.976c-1.536,1.088-1.472,3.488.348,3.925" transform="translate(-542.889 1014.641)" fill="none" stroke="#2e9648" stroke-linecap="round" stroke-linejoin="round" stroke-width="2"/>
    <path id="パス_830" data-name="パス 830" d="M680.959,237.981s-4.853,3.474-5.893,4.211c-1.536,1.088-1.472,3.488.348,3.925" transform="translate(-542.889 1014.641)" fill="none" stroke="#2e9648" stroke-linecap="round" stroke-linejoin="round" stroke-width="2"/>
    <path id="パス_831" data-name="パス 831" d="M692.674,228.7s6.456-6.228,17.033-3.756" transform="translate(-542.889 1014.641)" fill="none" stroke="#2e9648" stroke-linecap="round" stroke-linejoin="round" stroke-width="2"/>
  </g>
</svg>
